<?xml version="1.0" encoding="utf-8"?>
<!-- Generator: Adobe Illustrator 19.0.0, SVG Export Plug-In . SVG Version: 6.00 Build 0)  -->
<svg version="1.1" xmlns="http://www.w3.org/2000/svg" xmlns:xlink="http://www.w3.org/1999/xlink" x="0px" y="0px"
	 viewBox="0 0 520 520" style="enable-background:new 0 0 520 520;" xml:space="preserve">
<style type="text/css">
	.st0{display:none;}
	.st1{display:inline;}
	.st2{fill:none;stroke:#000000;stroke-width:3;stroke-miterlimit:10;}
	.st3{fill:none;stroke:#000000;stroke-width:4;stroke-miterlimit:10;}
</style>
<g id="Warstwa_1" class="st0">
	<g id="XMLID_1_" class="st1">
		<polyline id="XMLID_86_" class="st2" points="10,15 51.7,45 93.3,15 135,45 176.7,15 218.3,45 260,15 301.7,45 343.3,15 385,45 
			426.7,15 468.3,45 510,15 		"/>
	</g>
	<g id="XMLID_27_" class="st1">
		<polyline id="XMLID_84_" class="st2" points="10,-5 51.7,25 93.3,-5 135,25 176.7,-5 218.3,25 260,-5 301.7,25 343.3,-5 385,25 
			426.7,-5 468.3,25 510,-5 		"/>
	</g>
	<g id="XMLID_3_" class="st1">
		<polyline id="XMLID_82_" class="st2" points="10,35 51.7,65 93.3,35 135,65 176.7,35 218.3,65 260,35 301.7,65 343.3,35 385,65 
			426.7,35 468.3,65 510,35 		"/>
	</g>
	<g id="XMLID_4_" class="st1">
		<polyline id="XMLID_80_" class="st2" points="10,55 51.7,85 93.3,55 135,85 176.7,55 218.3,85 260,55 301.7,85 343.3,55 385,85 
			426.7,55 468.3,85 510,55 		"/>
	</g>
	<g id="XMLID_5_" class="st1">
		<polyline id="XMLID_78_" class="st2" points="10,75 51.7,105 93.3,75 135,105 176.7,75 218.3,105 260,75 301.7,105 343.3,75 
			385,105 426.7,75 468.3,105 510,75 		"/>
	</g>
	<g id="XMLID_6_" class="st1">
		<polyline id="XMLID_76_" class="st2" points="10,95 51.7,125 93.3,95 135,125 176.7,95 218.3,125 260,95 301.7,125 343.3,95 
			385,125 426.7,95 468.3,125 510,95 		"/>
	</g>
	<g id="XMLID_7_" class="st1">
		<polyline id="XMLID_74_" class="st2" points="10,115 51.7,145 93.3,115 135,145 176.7,115 218.3,145 260,115 301.7,145 343.3,115 
			385,145 426.7,115 468.3,145 510,115 		"/>
	</g>
	<g id="XMLID_8_" class="st1">
		<polyline id="XMLID_72_" class="st2" points="10,135 51.7,165 93.3,135 135,165 176.7,135 218.3,165 260,135 301.7,165 343.3,135 
			385,165 426.7,135 468.3,165 510,135 		"/>
	</g>
	<g id="XMLID_9_" class="st1">
		<polyline id="XMLID_70_" class="st2" points="10,155 51.7,185 93.3,155 135,185 176.7,155 218.3,185 260,155 301.7,185 343.3,155 
			385,185 426.7,155 468.3,185 510,155 		"/>
	</g>
	<g id="XMLID_10_" class="st1">
		<polyline id="XMLID_68_" class="st2" points="10,175 51.7,205 93.3,175 135,205 176.7,175 218.3,205 260,175 301.7,205 343.3,175 
			385,205 426.7,175 468.3,205 510,175 		"/>
	</g>
	<g id="XMLID_11_" class="st1">
		<polyline id="XMLID_66_" class="st2" points="10,195 51.7,225 93.3,195 135,225 176.7,195 218.3,225 260,195 301.7,225 343.3,195 
			385,225 426.7,195 468.3,225 510,195 		"/>
	</g>
	<g id="XMLID_12_" class="st1">
		<polyline id="XMLID_64_" class="st2" points="10,215 51.7,245 93.3,215 135,245 176.7,215 218.3,245 260,215 301.7,245 343.3,215 
			385,245 426.7,215 468.3,245 510,215 		"/>
	</g>
	<g id="XMLID_13_" class="st1">
		<polyline id="XMLID_62_" class="st2" points="10,235 51.7,265 93.3,235 135,265 176.7,235 218.3,265 260,235 301.7,265 343.3,235 
			385,265 426.7,235 468.3,265 510,235 		"/>
	</g>
	<g id="XMLID_14_" class="st1">
		<polyline id="XMLID_60_" class="st2" points="10,255 51.7,285 93.3,255 135,285 176.7,255 218.3,285 260,255 301.7,285 343.3,255 
			385,285 426.7,255 468.3,285 510,255 		"/>
	</g>
	<g id="XMLID_15_" class="st1">
		<polyline id="XMLID_58_" class="st2" points="10,275 51.7,305 93.3,275 135,305 176.7,275 218.3,305 260,275 301.7,305 343.3,275 
			385,305 426.7,275 468.3,305 510,275 		"/>
	</g>
	<g id="XMLID_16_" class="st1">
		<polyline id="XMLID_56_" class="st2" points="10,295 51.7,325 93.3,295 135,325 176.7,295 218.3,325 260,295 301.7,325 343.3,295 
			385,325 426.7,295 468.3,325 510,295 		"/>
	</g>
	<g id="XMLID_17_" class="st1">
		<polyline id="XMLID_54_" class="st2" points="10,315 51.7,345 93.3,315 135,345 176.7,315 218.3,345 260,315 301.7,345 343.3,315 
			385,345 426.7,315 468.3,345 510,315 		"/>
	</g>
	<g id="XMLID_18_" class="st1">
		<polyline id="XMLID_52_" class="st2" points="10,335 51.7,365 93.3,335 135,365 176.7,335 218.3,365 260,335 301.7,365 343.3,335 
			385,365 426.7,335 468.3,365 510,335 		"/>
	</g>
	<g id="XMLID_19_" class="st1">
		<polyline id="XMLID_50_" class="st2" points="10,355 51.7,385 93.3,355 135,385 176.7,355 218.3,385 260,355 301.7,385 343.3,355 
			385,385 426.7,355 468.3,385 510,355 		"/>
	</g>
	<g id="XMLID_20_" class="st1">
		<polyline id="XMLID_48_" class="st2" points="10,375 51.7,405 93.3,375 135,405 176.7,375 218.3,405 260,375 301.7,405 343.3,375 
			385,405 426.7,375 468.3,405 510,375 		"/>
	</g>
	<g id="XMLID_21_" class="st1">
		<polyline id="XMLID_46_" class="st2" points="10,395 51.7,425 93.3,395 135,425 176.7,395 218.3,425 260,395 301.7,425 343.3,395 
			385,425 426.7,395 468.3,425 510,395 		"/>
	</g>
	<g id="XMLID_22_" class="st1">
		<polyline id="XMLID_44_" class="st2" points="10,415 51.7,445 93.3,415 135,445 176.7,415 218.3,445 260,415 301.7,445 343.3,415 
			385,445 426.7,415 468.3,445 510,415 		"/>
	</g>
	<g id="XMLID_23_" class="st1">
		<polyline id="XMLID_42_" class="st2" points="10,435 51.7,465 93.3,435 135,465 176.7,435 218.3,465 260,435 301.7,465 343.3,435 
			385,465 426.7,435 468.3,465 510,435 		"/>
	</g>
	<g id="XMLID_24_" class="st1">
		<polyline id="XMLID_40_" class="st2" points="10,455 51.7,485 93.3,455 135,485 176.7,455 218.3,485 260,455 301.7,485 343.3,455 
			385,485 426.7,455 468.3,485 510,455 		"/>
	</g>
	<g id="XMLID_25_" class="st1">
		<polyline id="XMLID_38_" class="st2" points="10,475 51.7,505 93.3,475 135,505 176.7,475 218.3,505 260,475 301.7,505 343.3,475 
			385,505 426.7,475 468.3,505 510,475 		"/>
	</g>
	<g id="XMLID_26_" class="st1">
		<polyline id="XMLID_36_" class="st2" points="10,495 51.7,525 93.3,495 135,525 176.7,495 218.3,525 260,495 301.7,525 343.3,495 
			385,525 426.7,495 468.3,525 510,495 		"/>
	</g>
</g>
<g id="Warstwa_2">
	<g id="XMLID_2_">
		<path id="XMLID_191_" class="st3" d="M0,10.5c21.7,0,21.7,20,43.3,20c21.7,0,21.7-20,43.3-20c21.7,0,21.7,20,43.3,20
			c21.7,0,21.7-20,43.3-20c21.7,0,21.7,20,43.3,20c21.7,0,21.7-20,43.3-20c21.7,0,21.7,20,43.3,20c21.7,0,21.7-20,43.3-20
			c21.7,0,21.7,20,43.3,20c21.7,0,21.7-20,43.3-20c21.7,0,21.7,20,43.3,20c21.7,0,21.7-20,43.3-20"/>
	</g>
	<g id="XMLID_29_">
		<path id="XMLID_186_" class="st3" d="M0,30.5c21.7,0,21.7,20,43.3,20c21.7,0,21.7-20,43.3-20c21.7,0,21.7,20,43.3,20
			c21.7,0,21.7-20,43.3-20c21.7,0,21.7,20,43.3,20c21.7,0,21.7-20,43.3-20c21.7,0,21.7,20,43.3,20c21.7,0,21.7-20,43.3-20
			c21.7,0,21.7,20,43.3,20c21.7,0,21.7-20,43.3-20c21.7,0,21.7,20,43.3,20c21.7,0,21.7-20,43.3-20"/>
	</g>
	<g id="XMLID_30_">
		<path id="XMLID_184_" class="st3" d="M0,50.5c21.7,0,21.7,20,43.3,20c21.7,0,21.7-20,43.3-20c21.7,0,21.7,20,43.3,20
			c21.7,0,21.7-20,43.3-20c21.7,0,21.7,20,43.3,20c21.7,0,21.7-20,43.3-20c21.7,0,21.7,20,43.3,20c21.7,0,21.7-20,43.3-20
			c21.7,0,21.7,20,43.3,20c21.7,0,21.7-20,43.3-20c21.7,0,21.7,20,43.3,20c21.7,0,21.7-20,43.3-20"/>
	</g>
	<g id="XMLID_31_">
		<path id="XMLID_181_" class="st3" d="M0,70.5c21.7,0,21.7,20,43.3,20c21.7,0,21.7-20,43.3-20c21.7,0,21.7,20,43.3,20
			c21.7,0,21.7-20,43.3-20c21.7,0,21.7,20,43.3,20c21.7,0,21.7-20,43.3-20c21.7,0,21.7,20,43.3,20c21.7,0,21.7-20,43.3-20
			c21.7,0,21.7,20,43.3,20c21.7,0,21.7-20,43.3-20c21.7,0,21.7,20,43.3,20c21.7,0,21.7-20,43.3-20"/>
	</g>
	<g id="XMLID_32_">
		<path id="XMLID_179_" class="st3" d="M0,90.5c21.7,0,21.7,20,43.3,20c21.7,0,21.7-20,43.3-20c21.7,0,21.7,20,43.3,20
			c21.7,0,21.7-20,43.3-20c21.7,0,21.7,20,43.3,20c21.7,0,21.7-20,43.3-20c21.7,0,21.7,20,43.3,20c21.7,0,21.7-20,43.3-20
			c21.7,0,21.7,20,43.3,20c21.7,0,21.7-20,43.3-20c21.7,0,21.7,20,43.3,20c21.7,0,21.7-20,43.3-20"/>
	</g>
	<g id="XMLID_33_">
		<path id="XMLID_158_" class="st3" d="M0,110.5c21.7,0,21.7,20,43.3,20c21.7,0,21.7-20,43.3-20c21.7,0,21.7,20,43.3,20
			c21.7,0,21.7-20,43.3-20c21.7,0,21.7,20,43.3,20c21.7,0,21.7-20,43.3-20c21.7,0,21.7,20,43.3,20c21.7,0,21.7-20,43.3-20
			c21.7,0,21.7,20,43.3,20c21.7,0,21.7-20,43.3-20c21.7,0,21.7,20,43.3,20c21.7,0,21.7-20,43.3-20"/>
	</g>
	<g id="XMLID_34_">
		<path id="XMLID_156_" class="st3" d="M0,130.5c21.7,0,21.7,20,43.3,20c21.7,0,21.7-20,43.3-20c21.7,0,21.7,20,43.3,20
			c21.7,0,21.7-20,43.3-20c21.7,0,21.7,20,43.3,20c21.7,0,21.7-20,43.3-20c21.7,0,21.7,20,43.3,20c21.7,0,21.7-20,43.3-20
			c21.7,0,21.7,20,43.3,20c21.7,0,21.7-20,43.3-20c21.7,0,21.7,20,43.3,20c21.7,0,21.7-20,43.3-20"/>
	</g>
	<g id="XMLID_87_">
		<path id="XMLID_154_" class="st3" d="M0,150.5c21.7,0,21.7,20,43.3,20c21.7,0,21.7-20,43.3-20c21.7,0,21.7,20,43.3,20
			c21.7,0,21.7-20,43.3-20c21.7,0,21.7,20,43.3,20c21.7,0,21.7-20,43.3-20c21.7,0,21.7,20,43.3,20c21.7,0,21.7-20,43.3-20
			c21.7,0,21.7,20,43.3,20c21.7,0,21.7-20,43.3-20c21.7,0,21.7,20,43.3,20c21.7,0,21.7-20,43.3-20"/>
	</g>
	<g id="XMLID_88_">
		<path id="XMLID_152_" class="st3" d="M0,170.5c21.7,0,21.7,20,43.3,20c21.7,0,21.7-20,43.3-20c21.7,0,21.7,20,43.3,20
			c21.7,0,21.7-20,43.3-20c21.7,0,21.7,20,43.3,20c21.7,0,21.7-20,43.3-20c21.7,0,21.7,20,43.3,20c21.7,0,21.7-20,43.3-20
			c21.7,0,21.7,20,43.3,20c21.7,0,21.7-20,43.3-20c21.7,0,21.7,20,43.3,20c21.7,0,21.7-20,43.3-20"/>
	</g>
	<g id="XMLID_89_">
		<path id="XMLID_150_" class="st3" d="M0,190.5c21.7,0,21.7,20,43.3,20c21.7,0,21.7-20,43.3-20c21.7,0,21.7,20,43.3,20
			c21.7,0,21.7-20,43.3-20c21.7,0,21.7,20,43.3,20c21.7,0,21.7-20,43.3-20c21.7,0,21.7,20,43.3,20c21.7,0,21.7-20,43.3-20
			c21.7,0,21.7,20,43.3,20c21.7,0,21.7-20,43.3-20c21.7,0,21.7,20,43.3,20c21.7,0,21.7-20,43.3-20"/>
	</g>
	<g id="XMLID_90_">
		<path id="XMLID_148_" class="st3" d="M0,210.5c21.7,0,21.7,20,43.3,20c21.7,0,21.7-20,43.3-20c21.7,0,21.7,20,43.3,20
			c21.7,0,21.7-20,43.3-20c21.7,0,21.7,20,43.3,20c21.7,0,21.7-20,43.3-20c21.7,0,21.7,20,43.3,20c21.7,0,21.7-20,43.3-20
			c21.7,0,21.7,20,43.3,20c21.7,0,21.7-20,43.3-20c21.7,0,21.7,20,43.3,20c21.7,0,21.7-20,43.3-20"/>
	</g>
	<g id="XMLID_91_">
		<path id="XMLID_146_" class="st3" d="M0,230.5c21.7,0,21.7,20,43.3,20c21.7,0,21.7-20,43.3-20c21.7,0,21.7,20,43.3,20
			c21.7,0,21.7-20,43.3-20c21.7,0,21.7,20,43.3,20c21.7,0,21.7-20,43.3-20c21.7,0,21.7,20,43.3,20c21.7,0,21.7-20,43.3-20
			c21.7,0,21.7,20,43.3,20c21.7,0,21.7-20,43.3-20c21.7,0,21.7,20,43.3,20c21.7,0,21.7-20,43.3-20"/>
	</g>
	<g id="XMLID_92_">
		<path id="XMLID_144_" class="st3" d="M0,250.5c21.7,0,21.7,20,43.3,20c21.7,0,21.7-20,43.3-20c21.7,0,21.7,20,43.3,20
			c21.7,0,21.7-20,43.3-20c21.7,0,21.7,20,43.3,20c21.7,0,21.7-20,43.3-20c21.7,0,21.7,20,43.3,20c21.7,0,21.7-20,43.3-20
			c21.7,0,21.7,20,43.3,20c21.7,0,21.7-20,43.3-20c21.7,0,21.7,20,43.3,20c21.7,0,21.7-20,43.3-20"/>
	</g>
	<g id="XMLID_93_">
		<path id="XMLID_142_" class="st3" d="M0,270.5c21.7,0,21.7,20,43.3,20c21.7,0,21.7-20,43.3-20c21.7,0,21.7,20,43.3,20
			c21.7,0,21.7-20,43.3-20c21.7,0,21.7,20,43.3,20c21.7,0,21.7-20,43.3-20c21.7,0,21.7,20,43.3,20c21.7,0,21.7-20,43.3-20
			c21.7,0,21.7,20,43.3,20c21.7,0,21.7-20,43.3-20c21.7,0,21.7,20,43.3,20c21.7,0,21.7-20,43.3-20"/>
	</g>
	<g id="XMLID_94_">
		<path id="XMLID_140_" class="st3" d="M0,290.5c21.7,0,21.7,20,43.3,20c21.7,0,21.7-20,43.3-20c21.7,0,21.7,20,43.3,20
			c21.7,0,21.7-20,43.3-20c21.7,0,21.7,20,43.3,20c21.7,0,21.7-20,43.3-20c21.7,0,21.7,20,43.3,20c21.7,0,21.7-20,43.3-20
			c21.7,0,21.7,20,43.3,20c21.7,0,21.7-20,43.3-20c21.7,0,21.7,20,43.3,20c21.7,0,21.7-20,43.3-20"/>
	</g>
	<g id="XMLID_95_">
		<path id="XMLID_138_" class="st3" d="M0,310.5c21.7,0,21.7,20,43.3,20c21.7,0,21.7-20,43.3-20c21.7,0,21.7,20,43.3,20
			c21.7,0,21.7-20,43.3-20c21.7,0,21.7,20,43.3,20c21.7,0,21.7-20,43.3-20c21.7,0,21.7,20,43.3,20c21.7,0,21.7-20,43.3-20
			c21.7,0,21.7,20,43.3,20c21.7,0,21.7-20,43.3-20c21.7,0,21.7,20,43.3,20c21.7,0,21.7-20,43.3-20"/>
	</g>
	<g id="XMLID_96_">
		<path id="XMLID_136_" class="st3" d="M0,330.5c21.7,0,21.7,20,43.3,20c21.7,0,21.7-20,43.3-20c21.7,0,21.7,20,43.3,20
			c21.7,0,21.7-20,43.3-20c21.7,0,21.7,20,43.3,20c21.7,0,21.7-20,43.3-20c21.7,0,21.7,20,43.3,20c21.7,0,21.7-20,43.3-20
			c21.7,0,21.7,20,43.3,20c21.7,0,21.7-20,43.3-20c21.7,0,21.7,20,43.3,20c21.7,0,21.7-20,43.3-20"/>
	</g>
	<g id="XMLID_97_">
		<path id="XMLID_134_" class="st3" d="M0,350.5c21.7,0,21.7,20,43.3,20c21.7,0,21.7-20,43.3-20c21.7,0,21.7,20,43.3,20
			c21.7,0,21.7-20,43.3-20c21.7,0,21.7,20,43.3,20c21.7,0,21.7-20,43.3-20c21.7,0,21.7,20,43.3,20c21.7,0,21.7-20,43.3-20
			c21.7,0,21.7,20,43.3,20c21.7,0,21.7-20,43.3-20c21.7,0,21.7,20,43.3,20c21.7,0,21.7-20,43.3-20"/>
	</g>
	<g id="XMLID_98_">
		<path id="XMLID_132_" class="st3" d="M0,370.5c21.7,0,21.7,20,43.3,20c21.7,0,21.7-20,43.3-20c21.7,0,21.7,20,43.3,20
			c21.7,0,21.7-20,43.3-20c21.7,0,21.7,20,43.3,20c21.7,0,21.7-20,43.3-20c21.7,0,21.7,20,43.3,20c21.7,0,21.7-20,43.3-20
			c21.7,0,21.7,20,43.3,20c21.7,0,21.7-20,43.3-20c21.7,0,21.7,20,43.3,20c21.7,0,21.7-20,43.3-20"/>
	</g>
	<g id="XMLID_99_">
		<path id="XMLID_130_" class="st3" d="M0,390.5c21.7,0,21.7,20,43.3,20c21.7,0,21.7-20,43.3-20c21.7,0,21.7,20,43.3,20
			c21.7,0,21.7-20,43.3-20c21.7,0,21.7,20,43.3,20c21.7,0,21.7-20,43.3-20c21.7,0,21.7,20,43.3,20c21.7,0,21.7-20,43.3-20
			c21.7,0,21.7,20,43.3,20c21.7,0,21.7-20,43.3-20c21.7,0,21.7,20,43.3,20c21.7,0,21.7-20,43.3-20"/>
	</g>
	<g id="XMLID_100_">
		<path id="XMLID_128_" class="st3" d="M0,410.5c21.7,0,21.7,20,43.3,20c21.7,0,21.7-20,43.3-20c21.7,0,21.7,20,43.3,20
			c21.7,0,21.7-20,43.3-20c21.7,0,21.7,20,43.3,20c21.7,0,21.7-20,43.3-20c21.7,0,21.7,20,43.3,20c21.7,0,21.7-20,43.3-20
			c21.7,0,21.7,20,43.3,20c21.7,0,21.7-20,43.3-20c21.7,0,21.7,20,43.3,20c21.7,0,21.7-20,43.3-20"/>
	</g>
	<g id="XMLID_101_">
		<path id="XMLID_126_" class="st3" d="M0,430.5c21.7,0,21.7,20,43.3,20c21.7,0,21.7-20,43.3-20c21.7,0,21.7,20,43.3,20
			c21.7,0,21.7-20,43.3-20c21.7,0,21.7,20,43.3,20c21.7,0,21.7-20,43.3-20c21.7,0,21.7,20,43.3,20c21.7,0,21.7-20,43.3-20
			c21.7,0,21.7,20,43.3,20c21.7,0,21.7-20,43.3-20c21.7,0,21.7,20,43.3,20c21.7,0,21.7-20,43.3-20"/>
	</g>
	<g id="XMLID_102_">
		<path id="XMLID_124_" class="st3" d="M0,450.5c21.7,0,21.7,20,43.3,20c21.7,0,21.7-20,43.3-20c21.7,0,21.7,20,43.3,20
			c21.7,0,21.7-20,43.3-20c21.7,0,21.7,20,43.3,20c21.7,0,21.7-20,43.3-20c21.7,0,21.7,20,43.3,20c21.7,0,21.7-20,43.3-20
			c21.7,0,21.7,20,43.3,20c21.7,0,21.7-20,43.3-20c21.7,0,21.7,20,43.3,20c21.7,0,21.7-20,43.3-20"/>
	</g>
	<g id="XMLID_103_">
		<path id="XMLID_122_" class="st3" d="M0,470.5c21.7,0,21.7,20,43.3,20c21.7,0,21.7-20,43.3-20c21.7,0,21.7,20,43.3,20
			c21.7,0,21.7-20,43.3-20c21.7,0,21.7,20,43.3,20c21.7,0,21.7-20,43.3-20c21.7,0,21.7,20,43.3,20c21.7,0,21.7-20,43.3-20
			c21.7,0,21.7,20,43.3,20c21.7,0,21.7-20,43.3-20c21.7,0,21.7,20,43.3,20c21.7,0,21.7-20,43.3-20"/>
	</g>
	<g id="XMLID_111_">
		<path id="XMLID_120_" class="st3" d="M0,490.5c21.7,0,21.7,20,43.3,20c21.7,0,21.7-20,43.3-20c21.7,0,21.7,20,43.3,20
			c21.7,0,21.7-20,43.3-20c21.7,0,21.7,20,43.3,20c21.7,0,21.7-20,43.3-20c21.7,0,21.7,20,43.3,20c21.7,0,21.7-20,43.3-20
			c21.7,0,21.7,20,43.3,20c21.7,0,21.7-20,43.3-20c21.7,0,21.7,20,43.3,20c21.7,0,21.7-20,43.3-20"/>
	</g>
</g>
</svg>
