<?xml version="1.0" encoding="utf-8"?>
<!-- Generator: Adobe Illustrator 19.0.0, SVG Export Plug-In . SVG Version: 6.00 Build 0)  -->
<svg version="1.1" xmlns="http://www.w3.org/2000/svg" xmlns:xlink="http://www.w3.org/1999/xlink" x="0px" y="0px"
	 viewBox="0 0 500 500" style="enable-background:new 0 0 500 500;" xml:space="preserve">
<style type="text/css">
	.st0{display:none;}
	.st1{display:inline;}
	.st2{fill:none;stroke:#000000;stroke-width:3;stroke-miterlimit:10;}
	.st3{fill:none;stroke:#000000;stroke-width:4;stroke-miterlimit:10;}
</style>
<g id="Warstwa_1" class="st0">
	<g id="XMLID_28_" class="st1">
		<g id="XMLID_1_">
			<polyline id="XMLID_86_" class="st2" points="0,5 41.7,35 83.3,5 125,35 166.7,5 208.3,35 250,5 291.7,35 333.3,5 375,35 
				416.7,5 458.3,35 500,5 			"/>
		</g>
		<g id="XMLID_3_">
			<polyline id="XMLID_82_" class="st2" points="0,25 41.7,55 83.3,25 125,55 166.7,25 208.3,55 250,25 291.7,55 333.3,25 375,55 
				416.7,25 458.3,55 500,25 			"/>
		</g>
		<g id="XMLID_4_">
			<polyline id="XMLID_80_" class="st2" points="0,45 41.7,75 83.3,45 125,75 166.7,45 208.3,75 250,45 291.7,75 333.3,45 375,75 
				416.7,45 458.3,75 500,45 			"/>
		</g>
		<g id="XMLID_5_">
			<polyline id="XMLID_78_" class="st2" points="0,65 41.7,95 83.3,65 125,95 166.7,65 208.3,95 250,65 291.7,95 333.3,65 375,95 
				416.7,65 458.3,95 500,65 			"/>
		</g>
		<g id="XMLID_6_">
			<polyline id="XMLID_76_" class="st2" points="0,85 41.7,115 83.3,85 125,115 166.7,85 208.3,115 250,85 291.7,115 333.3,85 
				375,115 416.7,85 458.3,115 500,85 			"/>
		</g>
		<g id="XMLID_7_">
			<polyline id="XMLID_74_" class="st2" points="0,105 41.7,135 83.3,105 125,135 166.7,105 208.3,135 250,105 291.7,135 333.3,105 
				375,135 416.7,105 458.3,135 500,105 			"/>
		</g>
		<g id="XMLID_8_">
			<polyline id="XMLID_72_" class="st2" points="0,125 41.7,155 83.3,125 125,155 166.7,125 208.3,155 250,125 291.7,155 333.3,125 
				375,155 416.7,125 458.3,155 500,125 			"/>
		</g>
		<g id="XMLID_9_">
			<polyline id="XMLID_70_" class="st2" points="0,145 41.7,175 83.3,145 125,175 166.7,145 208.3,175 250,145 291.7,175 333.3,145 
				375,175 416.7,145 458.3,175 500,145 			"/>
		</g>
		<g id="XMLID_10_">
			<polyline id="XMLID_68_" class="st2" points="0,165 41.7,195 83.3,165 125,195 166.7,165 208.3,195 250,165 291.7,195 333.3,165 
				375,195 416.7,165 458.3,195 500,165 			"/>
		</g>
		<g id="XMLID_11_">
			<polyline id="XMLID_66_" class="st2" points="0,185 41.7,215 83.3,185 125,215 166.7,185 208.3,215 250,185 291.7,215 333.3,185 
				375,215 416.7,185 458.3,215 500,185 			"/>
		</g>
		<g id="XMLID_12_">
			<polyline id="XMLID_64_" class="st2" points="0,205 41.7,235 83.3,205 125,235 166.7,205 208.3,235 250,205 291.7,235 333.3,205 
				375,235 416.7,205 458.3,235 500,205 			"/>
		</g>
		<g id="XMLID_13_">
			<polyline id="XMLID_62_" class="st2" points="0,225 41.7,255 83.3,225 125,255 166.7,225 208.3,255 250,225 291.7,255 333.3,225 
				375,255 416.7,225 458.3,255 500,225 			"/>
		</g>
		<g id="XMLID_14_">
			<polyline id="XMLID_60_" class="st2" points="0,245 41.7,275 83.3,245 125,275 166.7,245 208.3,275 250,245 291.7,275 333.3,245 
				375,275 416.7,245 458.3,275 500,245 			"/>
		</g>
		<g id="XMLID_15_">
			<polyline id="XMLID_58_" class="st2" points="0,265 41.7,295 83.3,265 125,295 166.7,265 208.3,295 250,265 291.7,295 333.3,265 
				375,295 416.7,265 458.3,295 500,265 			"/>
		</g>
		<g id="XMLID_16_">
			<polyline id="XMLID_56_" class="st2" points="0,285 41.7,315 83.3,285 125,315 166.7,285 208.3,315 250,285 291.7,315 333.3,285 
				375,315 416.7,285 458.3,315 500,285 			"/>
		</g>
		<g id="XMLID_17_">
			<polyline id="XMLID_54_" class="st2" points="0,305 41.7,335 83.3,305 125,335 166.7,305 208.3,335 250,305 291.7,335 333.3,305 
				375,335 416.7,305 458.3,335 500,305 			"/>
		</g>
		<g id="XMLID_18_">
			<polyline id="XMLID_52_" class="st2" points="0,325 41.7,355 83.3,325 125,355 166.7,325 208.3,355 250,325 291.7,355 333.3,325 
				375,355 416.7,325 458.3,355 500,325 			"/>
		</g>
		<g id="XMLID_19_">
			<polyline id="XMLID_113_" class="st2" points="0,345 41.7,375 83.3,345 125,375 166.7,345 208.3,375 250,345 291.7,375 
				333.3,345 375,375 416.7,345 458.3,375 500,345 			"/>
		</g>
		<g id="XMLID_20_">
			<polyline id="XMLID_115_" class="st2" points="0,365 41.7,395 83.3,365 125,395 166.7,365 208.3,395 250,365 291.7,395 
				333.3,365 375,395 416.7,365 458.3,395 500,365 			"/>
		</g>
		<g id="XMLID_21_">
			<polyline id="XMLID_117_" class="st2" points="0,385 41.7,415 83.3,385 125,415 166.7,385 208.3,415 250,385 291.7,415 
				333.3,385 375,415 416.7,385 458.3,415 500,385 			"/>
		</g>
		<g id="XMLID_22_">
			<polyline id="XMLID_192_" class="st2" points="0,405 41.7,435 83.3,405 125,435 166.7,405 208.3,435 250,405 291.7,435 
				333.3,405 375,435 416.7,405 458.3,435 500,405 			"/>
		</g>
		<g id="XMLID_23_">
			<polyline id="XMLID_199_" class="st2" points="0,425 41.7,455 83.3,425 125,455 166.7,425 208.3,455 250,425 291.7,455 
				333.3,425 375,455 416.7,425 458.3,455 500,425 			"/>
		</g>
		<g id="XMLID_24_">
			<polyline id="XMLID_201_" class="st2" points="0,445 41.7,475 83.3,445 125,475 166.7,445 208.3,475 250,445 291.7,475 
				333.3,445 375,475 416.7,445 458.3,475 500,445 			"/>
		</g>
		<g id="XMLID_25_">
			<polyline id="XMLID_203_" class="st2" points="0,465 41.7,495 83.3,465 125,495 166.7,465 208.3,495 250,465 291.7,495 
				333.3,465 375,495 416.7,465 458.3,495 500,465 			"/>
		</g>
		<g id="XMLID_44_">
			<path id="XMLID_205_" class="st2" d="M0-15"/>
		</g>
		<g id="XMLID_43_">
			<path id="XMLID_84_" class="st2" d="M0-15"/>
		</g>
	</g>
</g>
<g id="Warstwa_2" class="st0">
	<g id="XMLID_2_" class="st1">
		<path id="XMLID_191_" class="st3" d="M-10,0.5c21.7,0,21.7,20,43.3,20c21.7,0,21.7-20,43.3-20c21.7,0,21.7,20,43.3,20
			c21.7,0,21.7-20,43.3-20c21.7,0,21.7,20,43.3,20c21.7,0,21.7-20,43.3-20c21.7,0,21.7,20,43.3,20c21.7,0,21.7-20,43.3-20
			c21.7,0,21.7,20,43.3,20c21.7,0,21.7-20,43.3-20c21.7,0,21.7,20,43.3,20c21.7,0,21.7-20,43.3-20"/>
	</g>
	<g id="XMLID_29_" class="st1">
		<path id="XMLID_186_" class="st3" d="M-10,20.5c21.7,0,21.7,20,43.3,20c21.7,0,21.7-20,43.3-20c21.7,0,21.7,20,43.3,20
			c21.7,0,21.7-20,43.3-20c21.7,0,21.7,20,43.3,20c21.7,0,21.7-20,43.3-20c21.7,0,21.7,20,43.3,20c21.7,0,21.7-20,43.3-20
			c21.7,0,21.7,20,43.3,20c21.7,0,21.7-20,43.3-20c21.7,0,21.7,20,43.3,20c21.7,0,21.7-20,43.3-20"/>
	</g>
	<g id="XMLID_30_" class="st1">
		<path id="XMLID_184_" class="st3" d="M-10,40.5c21.7,0,21.7,20,43.3,20c21.7,0,21.7-20,43.3-20c21.7,0,21.7,20,43.3,20
			c21.7,0,21.7-20,43.3-20c21.7,0,21.7,20,43.3,20c21.7,0,21.7-20,43.3-20c21.7,0,21.7,20,43.3,20c21.7,0,21.7-20,43.3-20
			c21.7,0,21.7,20,43.3,20c21.7,0,21.7-20,43.3-20c21.7,0,21.7,20,43.3,20c21.7,0,21.7-20,43.3-20"/>
	</g>
	<g id="XMLID_31_" class="st1">
		<path id="XMLID_181_" class="st3" d="M-10,60.5c21.7,0,21.7,20,43.3,20c21.7,0,21.7-20,43.3-20c21.7,0,21.7,20,43.3,20
			c21.7,0,21.7-20,43.3-20c21.7,0,21.7,20,43.3,20c21.7,0,21.7-20,43.3-20c21.7,0,21.7,20,43.3,20c21.7,0,21.7-20,43.3-20
			c21.7,0,21.7,20,43.3,20c21.7,0,21.7-20,43.3-20c21.7,0,21.7,20,43.3,20c21.7,0,21.7-20,43.3-20"/>
	</g>
	<g id="XMLID_32_" class="st1">
		<path id="XMLID_179_" class="st3" d="M-10,80.5c21.7,0,21.7,20,43.3,20c21.7,0,21.7-20,43.3-20c21.7,0,21.7,20,43.3,20
			c21.7,0,21.7-20,43.3-20c21.7,0,21.7,20,43.3,20c21.7,0,21.7-20,43.3-20c21.7,0,21.7,20,43.3,20c21.7,0,21.7-20,43.3-20
			c21.7,0,21.7,20,43.3,20c21.7,0,21.7-20,43.3-20c21.7,0,21.7,20,43.3,20c21.7,0,21.7-20,43.3-20"/>
	</g>
	<g id="XMLID_33_" class="st1">
		<path id="XMLID_158_" class="st3" d="M-10,100.5c21.7,0,21.7,20,43.3,20c21.7,0,21.7-20,43.3-20c21.7,0,21.7,20,43.3,20
			c21.7,0,21.7-20,43.3-20c21.7,0,21.7,20,43.3,20c21.7,0,21.7-20,43.3-20c21.7,0,21.7,20,43.3,20c21.7,0,21.7-20,43.3-20
			c21.7,0,21.7,20,43.3,20c21.7,0,21.7-20,43.3-20c21.7,0,21.7,20,43.3,20c21.7,0,21.7-20,43.3-20"/>
	</g>
	<g id="XMLID_34_" class="st1">
		<path id="XMLID_156_" class="st3" d="M-10,120.5c21.7,0,21.7,20,43.3,20c21.7,0,21.7-20,43.3-20c21.7,0,21.7,20,43.3,20
			c21.7,0,21.7-20,43.3-20c21.7,0,21.7,20,43.3,20c21.7,0,21.7-20,43.3-20c21.7,0,21.7,20,43.3,20c21.7,0,21.7-20,43.3-20
			c21.7,0,21.7,20,43.3,20c21.7,0,21.7-20,43.3-20c21.7,0,21.7,20,43.3,20c21.7,0,21.7-20,43.3-20"/>
	</g>
	<g id="XMLID_87_" class="st1">
		<path id="XMLID_154_" class="st3" d="M-10,140.5c21.7,0,21.7,20,43.3,20c21.7,0,21.7-20,43.3-20c21.7,0,21.7,20,43.3,20
			c21.7,0,21.7-20,43.3-20c21.7,0,21.7,20,43.3,20c21.7,0,21.7-20,43.3-20c21.7,0,21.7,20,43.3,20c21.7,0,21.7-20,43.3-20
			c21.7,0,21.7,20,43.3,20c21.7,0,21.7-20,43.3-20c21.7,0,21.7,20,43.3,20c21.7,0,21.7-20,43.3-20"/>
	</g>
	<g id="XMLID_88_" class="st1">
		<path id="XMLID_152_" class="st3" d="M-10,160.5c21.7,0,21.7,20,43.3,20c21.7,0,21.7-20,43.3-20c21.7,0,21.7,20,43.3,20
			c21.7,0,21.7-20,43.3-20c21.7,0,21.7,20,43.3,20c21.7,0,21.7-20,43.3-20c21.7,0,21.7,20,43.3,20c21.7,0,21.7-20,43.3-20
			c21.7,0,21.7,20,43.3,20c21.7,0,21.7-20,43.3-20c21.7,0,21.7,20,43.3,20c21.7,0,21.7-20,43.3-20"/>
	</g>
	<g id="XMLID_89_" class="st1">
		<path id="XMLID_150_" class="st3" d="M-10,180.5c21.7,0,21.7,20,43.3,20c21.7,0,21.7-20,43.3-20c21.7,0,21.7,20,43.3,20
			c21.7,0,21.7-20,43.3-20c21.7,0,21.7,20,43.3,20c21.7,0,21.7-20,43.3-20c21.7,0,21.7,20,43.3,20c21.7,0,21.7-20,43.3-20
			c21.7,0,21.7,20,43.3,20c21.7,0,21.7-20,43.3-20c21.7,0,21.7,20,43.3,20c21.7,0,21.7-20,43.3-20"/>
	</g>
	<g id="XMLID_90_" class="st1">
		<path id="XMLID_148_" class="st3" d="M-10,200.5c21.7,0,21.7,20,43.3,20c21.7,0,21.7-20,43.3-20c21.7,0,21.7,20,43.3,20
			c21.7,0,21.7-20,43.3-20c21.7,0,21.7,20,43.3,20c21.7,0,21.7-20,43.3-20c21.7,0,21.7,20,43.3,20c21.7,0,21.7-20,43.3-20
			c21.7,0,21.7,20,43.3,20c21.7,0,21.7-20,43.3-20c21.7,0,21.7,20,43.3,20c21.7,0,21.7-20,43.3-20"/>
	</g>
	<g id="XMLID_91_" class="st1">
		<path id="XMLID_146_" class="st3" d="M-10,220.5c21.7,0,21.7,20,43.3,20c21.7,0,21.7-20,43.3-20c21.7,0,21.7,20,43.3,20
			c21.7,0,21.7-20,43.3-20c21.7,0,21.7,20,43.3,20c21.7,0,21.7-20,43.3-20c21.7,0,21.7,20,43.3,20c21.7,0,21.7-20,43.3-20
			c21.7,0,21.7,20,43.3,20c21.7,0,21.7-20,43.3-20c21.7,0,21.7,20,43.3,20c21.7,0,21.7-20,43.3-20"/>
	</g>
	<g id="XMLID_92_" class="st1">
		<path id="XMLID_144_" class="st3" d="M-10,240.5c21.7,0,21.7,20,43.3,20c21.7,0,21.7-20,43.3-20c21.7,0,21.7,20,43.3,20
			c21.7,0,21.7-20,43.3-20c21.7,0,21.7,20,43.3,20c21.7,0,21.7-20,43.3-20c21.7,0,21.7,20,43.3,20c21.7,0,21.7-20,43.3-20
			c21.7,0,21.7,20,43.3,20c21.7,0,21.7-20,43.3-20c21.7,0,21.7,20,43.3,20c21.7,0,21.7-20,43.3-20"/>
	</g>
	<g id="XMLID_93_" class="st1">
		<path id="XMLID_142_" class="st3" d="M-10,260.5c21.7,0,21.7,20,43.3,20c21.7,0,21.7-20,43.3-20c21.7,0,21.7,20,43.3,20
			c21.7,0,21.7-20,43.3-20c21.7,0,21.7,20,43.3,20c21.7,0,21.7-20,43.3-20c21.7,0,21.7,20,43.3,20c21.7,0,21.7-20,43.3-20
			c21.7,0,21.7,20,43.3,20c21.7,0,21.7-20,43.3-20c21.7,0,21.7,20,43.3,20c21.7,0,21.7-20,43.3-20"/>
	</g>
	<g id="XMLID_94_" class="st1">
		<path id="XMLID_140_" class="st3" d="M-10,280.5c21.7,0,21.7,20,43.3,20c21.7,0,21.7-20,43.3-20c21.7,0,21.7,20,43.3,20
			c21.7,0,21.7-20,43.3-20c21.7,0,21.7,20,43.3,20c21.7,0,21.7-20,43.3-20c21.7,0,21.7,20,43.3,20c21.7,0,21.7-20,43.3-20
			c21.7,0,21.7,20,43.3,20c21.7,0,21.7-20,43.3-20c21.7,0,21.7,20,43.3,20c21.7,0,21.7-20,43.3-20"/>
	</g>
	<g id="XMLID_95_" class="st1">
		<path id="XMLID_138_" class="st3" d="M-10,300.5c21.7,0,21.7,20,43.3,20c21.7,0,21.7-20,43.3-20c21.7,0,21.7,20,43.3,20
			c21.7,0,21.7-20,43.3-20c21.7,0,21.7,20,43.3,20c21.7,0,21.7-20,43.3-20c21.7,0,21.7,20,43.3,20c21.7,0,21.7-20,43.3-20
			c21.7,0,21.7,20,43.3,20c21.7,0,21.7-20,43.3-20c21.7,0,21.7,20,43.3,20c21.7,0,21.7-20,43.3-20"/>
	</g>
	<g id="XMLID_96_" class="st1">
		<path id="XMLID_136_" class="st3" d="M-10,320.5c21.7,0,21.7,20,43.3,20c21.7,0,21.7-20,43.3-20c21.7,0,21.7,20,43.3,20
			c21.7,0,21.7-20,43.3-20c21.7,0,21.7,20,43.3,20c21.7,0,21.7-20,43.3-20c21.7,0,21.7,20,43.3,20c21.7,0,21.7-20,43.3-20
			c21.7,0,21.7,20,43.3,20c21.7,0,21.7-20,43.3-20c21.7,0,21.7,20,43.3,20c21.7,0,21.7-20,43.3-20"/>
	</g>
	<g id="XMLID_97_" class="st1">
		<path id="XMLID_134_" class="st3" d="M-10,340.5c21.7,0,21.7,20,43.3,20c21.7,0,21.7-20,43.3-20c21.7,0,21.7,20,43.3,20
			c21.7,0,21.7-20,43.3-20c21.7,0,21.7,20,43.3,20c21.7,0,21.7-20,43.3-20c21.7,0,21.7,20,43.3,20c21.7,0,21.7-20,43.3-20
			c21.7,0,21.7,20,43.3,20c21.7,0,21.7-20,43.3-20c21.7,0,21.7,20,43.3,20c21.7,0,21.7-20,43.3-20"/>
	</g>
	<g id="XMLID_98_" class="st1">
		<path id="XMLID_132_" class="st3" d="M-10,360.5c21.7,0,21.7,20,43.3,20c21.7,0,21.7-20,43.3-20c21.7,0,21.7,20,43.3,20
			c21.7,0,21.7-20,43.3-20c21.7,0,21.7,20,43.3,20c21.7,0,21.7-20,43.3-20c21.7,0,21.7,20,43.3,20c21.7,0,21.7-20,43.3-20
			c21.7,0,21.7,20,43.3,20c21.7,0,21.7-20,43.3-20c21.7,0,21.7,20,43.3,20c21.7,0,21.7-20,43.3-20"/>
	</g>
	<g id="XMLID_99_" class="st1">
		<path id="XMLID_130_" class="st3" d="M-10,380.5c21.7,0,21.7,20,43.3,20c21.7,0,21.7-20,43.3-20c21.7,0,21.7,20,43.3,20
			c21.7,0,21.7-20,43.3-20c21.7,0,21.7,20,43.3,20c21.7,0,21.7-20,43.3-20c21.7,0,21.7,20,43.3,20c21.7,0,21.7-20,43.3-20
			c21.7,0,21.7,20,43.3,20c21.7,0,21.7-20,43.3-20c21.7,0,21.7,20,43.3,20c21.7,0,21.7-20,43.3-20"/>
	</g>
	<g id="XMLID_100_" class="st1">
		<path id="XMLID_128_" class="st3" d="M-10,400.5c21.7,0,21.7,20,43.3,20c21.7,0,21.7-20,43.3-20c21.7,0,21.7,20,43.3,20
			c21.7,0,21.7-20,43.3-20c21.7,0,21.7,20,43.3,20c21.7,0,21.7-20,43.3-20c21.7,0,21.7,20,43.3,20c21.7,0,21.7-20,43.3-20
			c21.7,0,21.7,20,43.3,20c21.7,0,21.7-20,43.3-20c21.7,0,21.7,20,43.3,20c21.7,0,21.7-20,43.3-20"/>
	</g>
	<g id="XMLID_101_" class="st1">
		<path id="XMLID_126_" class="st3" d="M-10,420.5c21.7,0,21.7,20,43.3,20c21.7,0,21.7-20,43.3-20c21.7,0,21.7,20,43.3,20
			c21.7,0,21.7-20,43.3-20c21.7,0,21.7,20,43.3,20c21.7,0,21.7-20,43.3-20c21.7,0,21.7,20,43.3,20c21.7,0,21.7-20,43.3-20
			c21.7,0,21.7,20,43.3,20c21.7,0,21.7-20,43.3-20c21.7,0,21.7,20,43.3,20c21.7,0,21.7-20,43.3-20"/>
	</g>
	<g id="XMLID_102_" class="st1">
		<path id="XMLID_124_" class="st3" d="M-10,440.5c21.7,0,21.7,20,43.3,20c21.7,0,21.7-20,43.3-20c21.7,0,21.7,20,43.3,20
			c21.7,0,21.7-20,43.3-20c21.7,0,21.7,20,43.3,20c21.7,0,21.7-20,43.3-20c21.7,0,21.7,20,43.3,20c21.7,0,21.7-20,43.3-20
			c21.7,0,21.7,20,43.3,20c21.7,0,21.7-20,43.3-20c21.7,0,21.7,20,43.3,20c21.7,0,21.7-20,43.3-20"/>
	</g>
	<g id="XMLID_103_" class="st1">
		<path id="XMLID_122_" class="st3" d="M-10,460.5c21.7,0,21.7,20,43.3,20c21.7,0,21.7-20,43.3-20c21.7,0,21.7,20,43.3,20
			c21.7,0,21.7-20,43.3-20c21.7,0,21.7,20,43.3,20c21.7,0,21.7-20,43.3-20c21.7,0,21.7,20,43.3,20c21.7,0,21.7-20,43.3-20
			c21.7,0,21.7,20,43.3,20c21.7,0,21.7-20,43.3-20c21.7,0,21.7,20,43.3,20c21.7,0,21.7-20,43.3-20"/>
	</g>
	<g id="XMLID_111_" class="st1">
		<path id="XMLID_120_" class="st3" d="M-10,480.5c21.7,0,21.7,20,43.3,20c21.7,0,21.7-20,43.3-20c21.7,0,21.7,20,43.3,20
			c21.7,0,21.7-20,43.3-20c21.7,0,21.7,20,43.3,20c21.7,0,21.7-20,43.3-20c21.7,0,21.7,20,43.3,20c21.7,0,21.7-20,43.3-20
			c21.7,0,21.7,20,43.3,20c21.7,0,21.7-20,43.3-20c21.7,0,21.7,20,43.3,20c21.7,0,21.7-20,43.3-20"/>
	</g>
</g>
<g id="Warstwa_3">
	<circle id="XMLID_26_" cx="5" cy="5" r="5"/>
	<circle id="XMLID_45_" cx="25" cy="5" r="5"/>
	<circle id="XMLID_46_" cx="45" cy="5" r="5"/>
	<circle id="XMLID_47_" cx="65" cy="5" r="5"/>
	<circle id="XMLID_48_" cx="85" cy="5" r="5"/>
	<circle id="XMLID_49_" cx="105" cy="5" r="5"/>
	<circle id="XMLID_50_" cx="125" cy="5" r="5"/>
	<circle id="XMLID_206_" cx="145" cy="5" r="5"/>
	<circle id="XMLID_224_" cx="165" cy="5" r="5"/>
	<circle id="XMLID_225_" cx="185" cy="5" r="5"/>
	<circle id="XMLID_226_" cx="205" cy="5" r="5"/>
	<circle id="XMLID_227_" cx="225" cy="5" r="5"/>
	<circle id="XMLID_228_" cx="245" cy="5" r="5"/>
	<circle id="XMLID_229_" cx="265" cy="5" r="5"/>
	<circle id="XMLID_230_" cx="285" cy="5" r="5"/>
	<circle id="XMLID_231_" cx="305" cy="5" r="5"/>
	<circle id="XMLID_232_" cx="325" cy="5" r="5"/>
	<circle id="XMLID_233_" cx="345" cy="5" r="5"/>
	<circle id="XMLID_234_" cx="365" cy="5" r="5"/>
	<circle id="XMLID_235_" cx="385" cy="5" r="5"/>
	<circle id="XMLID_236_" cx="405" cy="5" r="5"/>
	<circle id="XMLID_237_" cx="425" cy="5" r="5"/>
	<circle id="XMLID_238_" cx="445" cy="5" r="5"/>
	<circle id="XMLID_239_" cx="465" cy="5" r="5"/>
	<circle id="XMLID_240_" cx="485" cy="5" r="5"/>
	<circle id="XMLID_265_" cx="5" cy="25" r="5"/>
	<circle id="XMLID_264_" cx="25" cy="25" r="5"/>
	<circle id="XMLID_263_" cx="45" cy="25" r="5"/>
	<circle id="XMLID_262_" cx="65" cy="25" r="5"/>
	<circle id="XMLID_261_" cx="85" cy="25" r="5"/>
	<circle id="XMLID_260_" cx="105" cy="25" r="5"/>
	<circle id="XMLID_259_" cx="125" cy="25" r="5"/>
	<circle id="XMLID_258_" cx="145" cy="25" r="5"/>
	<circle id="XMLID_257_" cx="165" cy="25" r="5"/>
	<circle id="XMLID_256_" cx="185" cy="25" r="5"/>
	<circle id="XMLID_255_" cx="205" cy="25" r="5"/>
	<circle id="XMLID_254_" cx="225" cy="25" r="5"/>
	<circle id="XMLID_253_" cx="245" cy="25" r="5"/>
	<circle id="XMLID_252_" cx="265" cy="25" r="5"/>
	<circle id="XMLID_251_" cx="285" cy="25" r="5"/>
	<circle id="XMLID_250_" cx="305" cy="25" r="5"/>
	<circle id="XMLID_249_" cx="325" cy="25" r="5"/>
	<circle id="XMLID_248_" cx="345" cy="25" r="5"/>
	<circle id="XMLID_247_" cx="365" cy="25" r="5"/>
	<circle id="XMLID_246_" cx="385" cy="25" r="5"/>
	<circle id="XMLID_245_" cx="405" cy="25" r="5"/>
	<circle id="XMLID_244_" cx="425" cy="25" r="5"/>
	<circle id="XMLID_243_" cx="445" cy="25" r="5"/>
	<circle id="XMLID_242_" cx="465" cy="25" r="5"/>
	<circle id="XMLID_241_" cx="485" cy="25" r="5"/>
	<circle id="XMLID_290_" cx="5" cy="45" r="5"/>
	<circle id="XMLID_289_" cx="25" cy="45" r="5"/>
	<circle id="XMLID_288_" cx="45" cy="45" r="5"/>
	<circle id="XMLID_287_" cx="65" cy="45" r="5"/>
	<circle id="XMLID_286_" cx="85" cy="45" r="5"/>
	<circle id="XMLID_285_" cx="105" cy="45" r="5"/>
	<circle id="XMLID_284_" cx="125" cy="45" r="5"/>
	<circle id="XMLID_283_" cx="145" cy="45" r="5"/>
	<circle id="XMLID_282_" cx="165" cy="45" r="5"/>
	<circle id="XMLID_281_" cx="185" cy="45" r="5"/>
	<circle id="XMLID_280_" cx="205" cy="45" r="5"/>
	<circle id="XMLID_279_" cx="225" cy="45" r="5"/>
	<circle id="XMLID_278_" cx="245" cy="45" r="5"/>
	<circle id="XMLID_277_" cx="265" cy="45" r="5"/>
	<circle id="XMLID_276_" cx="285" cy="45" r="5"/>
	<circle id="XMLID_275_" cx="305" cy="45" r="5"/>
	<circle id="XMLID_274_" cx="325" cy="45" r="5"/>
	<circle id="XMLID_273_" cx="345" cy="45" r="5"/>
	<circle id="XMLID_272_" cx="365" cy="45" r="5"/>
	<circle id="XMLID_271_" cx="385" cy="45" r="5"/>
	<circle id="XMLID_270_" cx="405" cy="45" r="5"/>
	<circle id="XMLID_269_" cx="425" cy="45" r="5"/>
	<circle id="XMLID_268_" cx="445" cy="45" r="5"/>
	<circle id="XMLID_267_" cx="465" cy="45" r="5"/>
	<circle id="XMLID_266_" cx="485" cy="45" r="5"/>
	<circle id="XMLID_315_" cx="5" cy="65" r="5"/>
	<circle id="XMLID_314_" cx="25" cy="65" r="5"/>
	<circle id="XMLID_313_" cx="45" cy="65" r="5"/>
	<circle id="XMLID_312_" cx="65" cy="65" r="5"/>
	<circle id="XMLID_311_" cx="85" cy="65" r="5"/>
	<circle id="XMLID_310_" cx="105" cy="65" r="5"/>
	<circle id="XMLID_309_" cx="125" cy="65" r="5"/>
	<circle id="XMLID_308_" cx="145" cy="65" r="5"/>
	<circle id="XMLID_307_" cx="165" cy="65" r="5"/>
	<circle id="XMLID_306_" cx="185" cy="65" r="5"/>
	<circle id="XMLID_305_" cx="205" cy="65" r="5"/>
	<circle id="XMLID_304_" cx="225" cy="65" r="5"/>
	<circle id="XMLID_303_" cx="245" cy="65" r="5"/>
	<circle id="XMLID_302_" cx="265" cy="65" r="5"/>
	<circle id="XMLID_301_" cx="285" cy="65" r="5"/>
	<circle id="XMLID_300_" cx="305" cy="65" r="5"/>
	<circle id="XMLID_299_" cx="325" cy="65" r="5"/>
	<circle id="XMLID_298_" cx="345" cy="65" r="5"/>
	<circle id="XMLID_297_" cx="365" cy="65" r="5"/>
	<circle id="XMLID_296_" cx="385" cy="65" r="5"/>
	<circle id="XMLID_295_" cx="405" cy="65" r="5"/>
	<circle id="XMLID_294_" cx="425" cy="65" r="5"/>
	<circle id="XMLID_293_" cx="445" cy="65" r="5"/>
	<circle id="XMLID_292_" cx="465" cy="65" r="5"/>
	<circle id="XMLID_291_" cx="485" cy="65" r="5"/>
	<circle id="XMLID_340_" cx="5" cy="85" r="5"/>
	<circle id="XMLID_339_" cx="25" cy="85" r="5"/>
	<circle id="XMLID_338_" cx="45" cy="85" r="5"/>
	<circle id="XMLID_337_" cx="65" cy="85" r="5"/>
	<circle id="XMLID_336_" cx="85" cy="85" r="5"/>
	<circle id="XMLID_335_" cx="105" cy="85" r="5"/>
	<circle id="XMLID_334_" cx="125" cy="85" r="5"/>
	<circle id="XMLID_333_" cx="145" cy="85" r="5"/>
	<circle id="XMLID_332_" cx="165" cy="85" r="5"/>
	<circle id="XMLID_331_" cx="185" cy="85" r="5"/>
	<circle id="XMLID_330_" cx="205" cy="85" r="5"/>
	<circle id="XMLID_329_" cx="225" cy="85" r="5"/>
	<circle id="XMLID_328_" cx="245" cy="85" r="5"/>
	<circle id="XMLID_327_" cx="265" cy="85" r="5"/>
	<circle id="XMLID_326_" cx="285" cy="85" r="5"/>
	<circle id="XMLID_325_" cx="305" cy="85" r="5"/>
	<circle id="XMLID_324_" cx="325" cy="85" r="5"/>
	<circle id="XMLID_323_" cx="345" cy="85" r="5"/>
	<circle id="XMLID_322_" cx="365" cy="85" r="5"/>
	<circle id="XMLID_321_" cx="385" cy="85" r="5"/>
	<circle id="XMLID_320_" cx="405" cy="85" r="5"/>
	<circle id="XMLID_319_" cx="425" cy="85" r="5"/>
	<circle id="XMLID_318_" cx="445" cy="85" r="5"/>
	<circle id="XMLID_317_" cx="465" cy="85" r="5"/>
	<circle id="XMLID_316_" cx="485" cy="85" r="5"/>
	<circle id="XMLID_365_" cx="5" cy="105" r="5"/>
	<circle id="XMLID_364_" cx="25" cy="105" r="5"/>
	<circle id="XMLID_363_" cx="45" cy="105" r="5"/>
	<circle id="XMLID_362_" cx="65" cy="105" r="5"/>
	<circle id="XMLID_361_" cx="85" cy="105" r="5"/>
	<circle id="XMLID_360_" cx="105" cy="105" r="5"/>
	<circle id="XMLID_359_" cx="125" cy="105" r="5"/>
	<circle id="XMLID_358_" cx="145" cy="105" r="5"/>
	<circle id="XMLID_357_" cx="165" cy="105" r="5"/>
	<circle id="XMLID_356_" cx="185" cy="105" r="5"/>
	<circle id="XMLID_355_" cx="205" cy="105" r="5"/>
	<circle id="XMLID_354_" cx="225" cy="105" r="5"/>
	<circle id="XMLID_353_" cx="245" cy="105" r="5"/>
	<circle id="XMLID_352_" cx="265" cy="105" r="5"/>
	<circle id="XMLID_351_" cx="285" cy="105" r="5"/>
	<circle id="XMLID_350_" cx="305" cy="105" r="5"/>
	<circle id="XMLID_349_" cx="325" cy="105" r="5"/>
	<circle id="XMLID_348_" cx="345" cy="105" r="5"/>
	<circle id="XMLID_347_" cx="365" cy="105" r="5"/>
	<circle id="XMLID_346_" cx="385" cy="105" r="5"/>
	<circle id="XMLID_345_" cx="405" cy="105" r="5"/>
	<circle id="XMLID_344_" cx="425" cy="105" r="5"/>
	<circle id="XMLID_343_" cx="445" cy="105" r="5"/>
	<circle id="XMLID_342_" cx="465" cy="105" r="5"/>
	<circle id="XMLID_341_" cx="485" cy="105" r="5"/>
	<circle id="XMLID_390_" cx="5" cy="125" r="5"/>
	<circle id="XMLID_389_" cx="25" cy="125" r="5"/>
	<circle id="XMLID_388_" cx="45" cy="125" r="5"/>
	<circle id="XMLID_387_" cx="65" cy="125" r="5"/>
	<circle id="XMLID_386_" cx="85" cy="125" r="5"/>
	<circle id="XMLID_385_" cx="105" cy="125" r="5"/>
	<circle id="XMLID_384_" cx="125" cy="125" r="5"/>
	<circle id="XMLID_383_" cx="145" cy="125" r="5"/>
	<circle id="XMLID_382_" cx="165" cy="125" r="5"/>
	<circle id="XMLID_381_" cx="185" cy="125" r="5"/>
	<circle id="XMLID_380_" cx="205" cy="125" r="5"/>
	<circle id="XMLID_379_" cx="225" cy="125" r="5"/>
	<circle id="XMLID_378_" cx="245" cy="125" r="5"/>
	<circle id="XMLID_377_" cx="265" cy="125" r="5"/>
	<circle id="XMLID_376_" cx="285" cy="125" r="5"/>
	<circle id="XMLID_375_" cx="305" cy="125" r="5"/>
	<circle id="XMLID_374_" cx="325" cy="125" r="5"/>
	<circle id="XMLID_373_" cx="345" cy="125" r="5"/>
	<circle id="XMLID_372_" cx="365" cy="125" r="5"/>
	<circle id="XMLID_371_" cx="385" cy="125" r="5"/>
	<circle id="XMLID_370_" cx="405" cy="125" r="5"/>
	<circle id="XMLID_369_" cx="425" cy="125" r="5"/>
	<circle id="XMLID_368_" cx="445" cy="125" r="5"/>
	<circle id="XMLID_367_" cx="465" cy="125" r="5"/>
	<circle id="XMLID_366_" cx="485" cy="125" r="5"/>
	<circle id="XMLID_415_" cx="5" cy="145" r="5"/>
	<circle id="XMLID_414_" cx="25" cy="145" r="5"/>
	<circle id="XMLID_413_" cx="45" cy="145" r="5"/>
	<circle id="XMLID_412_" cx="65" cy="145" r="5"/>
	<circle id="XMLID_411_" cx="85" cy="145" r="5"/>
	<circle id="XMLID_410_" cx="105" cy="145" r="5"/>
	<circle id="XMLID_409_" cx="125" cy="145" r="5"/>
	<circle id="XMLID_408_" cx="145" cy="145" r="5"/>
	<circle id="XMLID_407_" cx="165" cy="145" r="5"/>
	<circle id="XMLID_406_" cx="185" cy="145" r="5"/>
	<circle id="XMLID_405_" cx="205" cy="145" r="5"/>
	<circle id="XMLID_404_" cx="225" cy="145" r="5"/>
	<circle id="XMLID_403_" cx="245" cy="145" r="5"/>
	<circle id="XMLID_402_" cx="265" cy="145" r="5"/>
	<circle id="XMLID_401_" cx="285" cy="145" r="5"/>
	<circle id="XMLID_400_" cx="305" cy="145" r="5"/>
	<circle id="XMLID_399_" cx="325" cy="145" r="5"/>
	<circle id="XMLID_398_" cx="345" cy="145" r="5"/>
	<circle id="XMLID_397_" cx="365" cy="145" r="5"/>
	<circle id="XMLID_396_" cx="385" cy="145" r="5"/>
	<circle id="XMLID_395_" cx="405" cy="145" r="5"/>
	<circle id="XMLID_394_" cx="425" cy="145" r="5"/>
	<circle id="XMLID_393_" cx="445" cy="145" r="5"/>
	<circle id="XMLID_392_" cx="465" cy="145" r="5"/>
	<circle id="XMLID_391_" cx="485" cy="145" r="5"/>
	<circle id="XMLID_440_" cx="5" cy="165" r="5"/>
	<circle id="XMLID_439_" cx="25" cy="165" r="5"/>
	<circle id="XMLID_438_" cx="45" cy="165" r="5"/>
	<circle id="XMLID_437_" cx="65" cy="165" r="5"/>
	<circle id="XMLID_436_" cx="85" cy="165" r="5"/>
	<circle id="XMLID_435_" cx="105" cy="165" r="5"/>
	<circle id="XMLID_434_" cx="125" cy="165" r="5"/>
	<circle id="XMLID_433_" cx="145" cy="165" r="5"/>
	<circle id="XMLID_432_" cx="165" cy="165" r="5"/>
	<circle id="XMLID_431_" cx="185" cy="165" r="5"/>
	<circle id="XMLID_430_" cx="205" cy="165" r="5"/>
	<circle id="XMLID_429_" cx="225" cy="165" r="5"/>
	<circle id="XMLID_428_" cx="245" cy="165" r="5"/>
	<circle id="XMLID_427_" cx="265" cy="165" r="5"/>
	<circle id="XMLID_426_" cx="285" cy="165" r="5"/>
	<circle id="XMLID_425_" cx="305" cy="165" r="5"/>
	<circle id="XMLID_424_" cx="325" cy="165" r="5"/>
	<circle id="XMLID_423_" cx="345" cy="165" r="5"/>
	<circle id="XMLID_422_" cx="365" cy="165" r="5"/>
	<circle id="XMLID_421_" cx="385" cy="165" r="5"/>
	<circle id="XMLID_420_" cx="405" cy="165" r="5"/>
	<circle id="XMLID_419_" cx="425" cy="165" r="5"/>
	<circle id="XMLID_418_" cx="445" cy="165" r="5"/>
	<circle id="XMLID_417_" cx="465" cy="165" r="5"/>
	<circle id="XMLID_416_" cx="485" cy="165" r="5"/>
	<circle id="XMLID_465_" cx="5" cy="185" r="5"/>
	<circle id="XMLID_464_" cx="25" cy="185" r="5"/>
	<circle id="XMLID_463_" cx="45" cy="185" r="5"/>
	<circle id="XMLID_462_" cx="65" cy="185" r="5"/>
	<circle id="XMLID_461_" cx="85" cy="185" r="5"/>
	<circle id="XMLID_460_" cx="105" cy="185" r="5"/>
	<circle id="XMLID_459_" cx="125" cy="185" r="5"/>
	<circle id="XMLID_458_" cx="145" cy="185" r="5"/>
	<circle id="XMLID_457_" cx="165" cy="185" r="5"/>
	<circle id="XMLID_456_" cx="185" cy="185" r="5"/>
	<circle id="XMLID_455_" cx="205" cy="185" r="5"/>
	<circle id="XMLID_454_" cx="225" cy="185" r="5"/>
	<circle id="XMLID_453_" cx="245" cy="185" r="5"/>
	<circle id="XMLID_452_" cx="265" cy="185" r="5"/>
	<circle id="XMLID_451_" cx="285" cy="185" r="5"/>
	<circle id="XMLID_450_" cx="305" cy="185" r="5"/>
	<circle id="XMLID_449_" cx="325" cy="185" r="5"/>
	<circle id="XMLID_448_" cx="345" cy="185" r="5"/>
	<circle id="XMLID_447_" cx="365" cy="185" r="5"/>
	<circle id="XMLID_446_" cx="385" cy="185" r="5"/>
	<circle id="XMLID_445_" cx="405" cy="185" r="5"/>
	<circle id="XMLID_444_" cx="425" cy="185" r="5"/>
	<circle id="XMLID_443_" cx="445" cy="185" r="5"/>
	<circle id="XMLID_442_" cx="465" cy="185" r="5"/>
	<circle id="XMLID_441_" cx="485" cy="185" r="5"/>
	<circle id="XMLID_490_" cx="5" cy="205" r="5"/>
	<circle id="XMLID_489_" cx="25" cy="205" r="5"/>
	<circle id="XMLID_488_" cx="45" cy="205" r="5"/>
	<circle id="XMLID_487_" cx="65" cy="205" r="5"/>
	<circle id="XMLID_486_" cx="85" cy="205" r="5"/>
	<circle id="XMLID_485_" cx="105" cy="205" r="5"/>
	<circle id="XMLID_484_" cx="125" cy="205" r="5"/>
	<circle id="XMLID_483_" cx="145" cy="205" r="5"/>
	<circle id="XMLID_482_" cx="165" cy="205" r="5"/>
	<circle id="XMLID_481_" cx="185" cy="205" r="5"/>
	<circle id="XMLID_480_" cx="205" cy="205" r="5"/>
	<circle id="XMLID_479_" cx="225" cy="205" r="5"/>
	<circle id="XMLID_478_" cx="245" cy="205" r="5"/>
	<circle id="XMLID_477_" cx="265" cy="205" r="5"/>
	<circle id="XMLID_476_" cx="285" cy="205" r="5"/>
	<circle id="XMLID_475_" cx="305" cy="205" r="5"/>
	<circle id="XMLID_474_" cx="325" cy="205" r="5"/>
	<circle id="XMLID_473_" cx="345" cy="205" r="5"/>
	<circle id="XMLID_472_" cx="365" cy="205" r="5"/>
	<circle id="XMLID_471_" cx="385" cy="205" r="5"/>
	<circle id="XMLID_470_" cx="405" cy="205" r="5"/>
	<circle id="XMLID_469_" cx="425" cy="205" r="5"/>
	<circle id="XMLID_468_" cx="445" cy="205" r="5"/>
	<circle id="XMLID_467_" cx="465" cy="205" r="5"/>
	<circle id="XMLID_466_" cx="485" cy="205" r="5"/>
	<circle id="XMLID_515_" cx="5" cy="225" r="5"/>
	<circle id="XMLID_514_" cx="25" cy="225" r="5"/>
	<circle id="XMLID_513_" cx="45" cy="225" r="5"/>
	<circle id="XMLID_512_" cx="65" cy="225" r="5"/>
	<circle id="XMLID_511_" cx="85" cy="225" r="5"/>
	<circle id="XMLID_510_" cx="105" cy="225" r="5"/>
	<circle id="XMLID_509_" cx="125" cy="225" r="5"/>
	<circle id="XMLID_508_" cx="145" cy="225" r="5"/>
	<circle id="XMLID_507_" cx="165" cy="225" r="5"/>
	<circle id="XMLID_506_" cx="185" cy="225" r="5"/>
	<circle id="XMLID_505_" cx="205" cy="225" r="5"/>
	<circle id="XMLID_504_" cx="225" cy="225" r="5"/>
	<circle id="XMLID_503_" cx="245" cy="225" r="5"/>
	<circle id="XMLID_502_" cx="265" cy="225" r="5"/>
	<circle id="XMLID_501_" cx="285" cy="225" r="5"/>
	<circle id="XMLID_500_" cx="305" cy="225" r="5"/>
	<circle id="XMLID_499_" cx="325" cy="225" r="5"/>
	<circle id="XMLID_498_" cx="345" cy="225" r="5"/>
	<circle id="XMLID_497_" cx="365" cy="225" r="5"/>
	<circle id="XMLID_496_" cx="385" cy="225" r="5"/>
	<circle id="XMLID_495_" cx="405" cy="225" r="5"/>
	<circle id="XMLID_494_" cx="425" cy="225" r="5"/>
	<circle id="XMLID_493_" cx="445" cy="225" r="5"/>
	<circle id="XMLID_492_" cx="465" cy="225" r="5"/>
	<circle id="XMLID_491_" cx="485" cy="225" r="5"/>
	<circle id="XMLID_540_" cx="5" cy="245" r="5"/>
	<circle id="XMLID_539_" cx="25" cy="245" r="5"/>
	<circle id="XMLID_538_" cx="45" cy="245" r="5"/>
	<circle id="XMLID_537_" cx="65" cy="245" r="5"/>
	<circle id="XMLID_536_" cx="85" cy="245" r="5"/>
	<circle id="XMLID_535_" cx="105" cy="245" r="5"/>
	<circle id="XMLID_534_" cx="125" cy="245" r="5"/>
	<circle id="XMLID_533_" cx="145" cy="245" r="5"/>
	<circle id="XMLID_532_" cx="165" cy="245" r="5"/>
	<circle id="XMLID_531_" cx="185" cy="245" r="5"/>
	<circle id="XMLID_530_" cx="205" cy="245" r="5"/>
	<circle id="XMLID_529_" cx="225" cy="245" r="5"/>
	<circle id="XMLID_528_" cx="245" cy="245" r="5"/>
	<circle id="XMLID_527_" cx="265" cy="245" r="5"/>
	<circle id="XMLID_526_" cx="285" cy="245" r="5"/>
	<circle id="XMLID_525_" cx="305" cy="245" r="5"/>
	<circle id="XMLID_524_" cx="325" cy="245" r="5"/>
	<circle id="XMLID_523_" cx="345" cy="245" r="5"/>
	<circle id="XMLID_522_" cx="365" cy="245" r="5"/>
	<circle id="XMLID_521_" cx="385" cy="245" r="5"/>
	<circle id="XMLID_520_" cx="405" cy="245" r="5"/>
	<circle id="XMLID_519_" cx="425" cy="245" r="5"/>
	<circle id="XMLID_518_" cx="445" cy="245" r="5"/>
	<circle id="XMLID_517_" cx="465" cy="245" r="5"/>
	<circle id="XMLID_516_" cx="485" cy="245" r="5"/>
	<circle id="XMLID_565_" cx="5" cy="265" r="5"/>
	<circle id="XMLID_564_" cx="25" cy="265" r="5"/>
	<circle id="XMLID_563_" cx="45" cy="265" r="5"/>
	<circle id="XMLID_562_" cx="65" cy="265" r="5"/>
	<circle id="XMLID_561_" cx="85" cy="265" r="5"/>
	<circle id="XMLID_560_" cx="105" cy="265" r="5"/>
	<circle id="XMLID_559_" cx="125" cy="265" r="5"/>
	<circle id="XMLID_558_" cx="145" cy="265" r="5"/>
	<circle id="XMLID_557_" cx="165" cy="265" r="5"/>
	<circle id="XMLID_556_" cx="185" cy="265" r="5"/>
	<circle id="XMLID_555_" cx="205" cy="265" r="5"/>
	<circle id="XMLID_554_" cx="225" cy="265" r="5"/>
	<circle id="XMLID_553_" cx="245" cy="265" r="5"/>
	<circle id="XMLID_552_" cx="265" cy="265" r="5"/>
	<circle id="XMLID_551_" cx="285" cy="265" r="5"/>
	<circle id="XMLID_550_" cx="305" cy="265" r="5"/>
	<circle id="XMLID_549_" cx="325" cy="265" r="5"/>
	<circle id="XMLID_548_" cx="345" cy="265" r="5"/>
	<circle id="XMLID_547_" cx="365" cy="265" r="5"/>
	<circle id="XMLID_546_" cx="385" cy="265" r="5"/>
	<circle id="XMLID_545_" cx="405" cy="265" r="5"/>
	<circle id="XMLID_544_" cx="425" cy="265" r="5"/>
	<circle id="XMLID_543_" cx="445" cy="265" r="5"/>
	<circle id="XMLID_542_" cx="465" cy="265" r="5"/>
	<circle id="XMLID_541_" cx="485" cy="265" r="5"/>
	<circle id="XMLID_590_" cx="5" cy="285" r="5"/>
	<circle id="XMLID_589_" cx="25" cy="285" r="5"/>
	<circle id="XMLID_588_" cx="45" cy="285" r="5"/>
	<circle id="XMLID_587_" cx="65" cy="285" r="5"/>
	<circle id="XMLID_586_" cx="85" cy="285" r="5"/>
	<circle id="XMLID_585_" cx="105" cy="285" r="5"/>
	<circle id="XMLID_584_" cx="125" cy="285" r="5"/>
	<circle id="XMLID_583_" cx="145" cy="285" r="5"/>
	<circle id="XMLID_582_" cx="165" cy="285" r="5"/>
	<circle id="XMLID_581_" cx="185" cy="285" r="5"/>
	<circle id="XMLID_580_" cx="205" cy="285" r="5"/>
	<circle id="XMLID_579_" cx="225" cy="285" r="5"/>
	<circle id="XMLID_578_" cx="245" cy="285" r="5"/>
	<circle id="XMLID_577_" cx="265" cy="285" r="5"/>
	<circle id="XMLID_576_" cx="285" cy="285" r="5"/>
	<circle id="XMLID_575_" cx="305" cy="285" r="5"/>
	<circle id="XMLID_574_" cx="325" cy="285" r="5"/>
	<circle id="XMLID_573_" cx="345" cy="285" r="5"/>
	<circle id="XMLID_572_" cx="365" cy="285" r="5"/>
	<circle id="XMLID_571_" cx="385" cy="285" r="5"/>
	<circle id="XMLID_570_" cx="405" cy="285" r="5"/>
	<circle id="XMLID_569_" cx="425" cy="285" r="5"/>
	<circle id="XMLID_568_" cx="445" cy="285" r="5"/>
	<circle id="XMLID_567_" cx="465" cy="285" r="5"/>
	<circle id="XMLID_566_" cx="485" cy="285" r="5"/>
	<circle id="XMLID_615_" cx="5" cy="305" r="5"/>
	<circle id="XMLID_614_" cx="25" cy="305" r="5"/>
	<circle id="XMLID_613_" cx="45" cy="305" r="5"/>
	<circle id="XMLID_612_" cx="65" cy="305" r="5"/>
	<circle id="XMLID_611_" cx="85" cy="305" r="5"/>
	<circle id="XMLID_610_" cx="105" cy="305" r="5"/>
	<circle id="XMLID_609_" cx="125" cy="305" r="5"/>
	<circle id="XMLID_608_" cx="145" cy="305" r="5"/>
	<circle id="XMLID_607_" cx="165" cy="305" r="5"/>
	<circle id="XMLID_606_" cx="185" cy="305" r="5"/>
	<circle id="XMLID_605_" cx="205" cy="305" r="5"/>
	<circle id="XMLID_604_" cx="225" cy="305" r="5"/>
	<circle id="XMLID_603_" cx="245" cy="305" r="5"/>
	<circle id="XMLID_602_" cx="265" cy="305" r="5"/>
	<circle id="XMLID_601_" cx="285" cy="305" r="5"/>
	<circle id="XMLID_600_" cx="305" cy="305" r="5"/>
	<circle id="XMLID_599_" cx="325" cy="305" r="5"/>
	<circle id="XMLID_598_" cx="345" cy="305" r="5"/>
	<circle id="XMLID_597_" cx="365" cy="305" r="5"/>
	<circle id="XMLID_596_" cx="385" cy="305" r="5"/>
	<circle id="XMLID_595_" cx="405" cy="305" r="5"/>
	<circle id="XMLID_594_" cx="425" cy="305" r="5"/>
	<circle id="XMLID_593_" cx="445" cy="305" r="5"/>
	<circle id="XMLID_592_" cx="465" cy="305" r="5"/>
	<circle id="XMLID_591_" cx="485" cy="305" r="5"/>
	<circle id="XMLID_640_" cx="5" cy="325" r="5"/>
	<circle id="XMLID_639_" cx="25" cy="325" r="5"/>
	<circle id="XMLID_638_" cx="45" cy="325" r="5"/>
	<circle id="XMLID_637_" cx="65" cy="325" r="5"/>
	<circle id="XMLID_636_" cx="85" cy="325" r="5"/>
	<circle id="XMLID_635_" cx="105" cy="325" r="5"/>
	<circle id="XMLID_634_" cx="125" cy="325" r="5"/>
	<circle id="XMLID_633_" cx="145" cy="325" r="5"/>
	<circle id="XMLID_632_" cx="165" cy="325" r="5"/>
	<circle id="XMLID_631_" cx="185" cy="325" r="5"/>
	<circle id="XMLID_630_" cx="205" cy="325" r="5"/>
	<circle id="XMLID_629_" cx="225" cy="325" r="5"/>
	<circle id="XMLID_628_" cx="245" cy="325" r="5"/>
	<circle id="XMLID_627_" cx="265" cy="325" r="5"/>
	<circle id="XMLID_626_" cx="285" cy="325" r="5"/>
	<circle id="XMLID_625_" cx="305" cy="325" r="5"/>
	<circle id="XMLID_624_" cx="325" cy="325" r="5"/>
	<circle id="XMLID_623_" cx="345" cy="325" r="5"/>
	<circle id="XMLID_622_" cx="365" cy="325" r="5"/>
	<circle id="XMLID_621_" cx="385" cy="325" r="5"/>
	<circle id="XMLID_620_" cx="405" cy="325" r="5"/>
	<circle id="XMLID_619_" cx="425" cy="325" r="5"/>
	<circle id="XMLID_618_" cx="445" cy="325" r="5"/>
	<circle id="XMLID_617_" cx="465" cy="325" r="5"/>
	<circle id="XMLID_616_" cx="485" cy="325" r="5"/>
	<circle id="XMLID_665_" cx="5" cy="345" r="5"/>
	<circle id="XMLID_664_" cx="25" cy="345" r="5"/>
	<circle id="XMLID_663_" cx="45" cy="345" r="5"/>
	<circle id="XMLID_662_" cx="65" cy="345" r="5"/>
	<circle id="XMLID_661_" cx="85" cy="345" r="5"/>
	<circle id="XMLID_660_" cx="105" cy="345" r="5"/>
	<circle id="XMLID_659_" cx="125" cy="345" r="5"/>
	<circle id="XMLID_658_" cx="145" cy="345" r="5"/>
	<circle id="XMLID_657_" cx="165" cy="345" r="5"/>
	<circle id="XMLID_656_" cx="185" cy="345" r="5"/>
	<circle id="XMLID_655_" cx="205" cy="345" r="5"/>
	<circle id="XMLID_654_" cx="225" cy="345" r="5"/>
	<circle id="XMLID_653_" cx="245" cy="345" r="5"/>
	<circle id="XMLID_652_" cx="265" cy="345" r="5"/>
	<circle id="XMLID_651_" cx="285" cy="345" r="5"/>
	<circle id="XMLID_650_" cx="305" cy="345" r="5"/>
	<circle id="XMLID_649_" cx="325" cy="345" r="5"/>
	<circle id="XMLID_648_" cx="345" cy="345" r="5"/>
	<circle id="XMLID_647_" cx="365" cy="345" r="5"/>
	<circle id="XMLID_646_" cx="385" cy="345" r="5"/>
	<circle id="XMLID_645_" cx="405" cy="345" r="5"/>
	<circle id="XMLID_644_" cx="425" cy="345" r="5"/>
	<circle id="XMLID_643_" cx="445" cy="345" r="5"/>
	<circle id="XMLID_642_" cx="465" cy="345" r="5"/>
	<circle id="XMLID_641_" cx="485" cy="345" r="5"/>
	<circle id="XMLID_690_" cx="5" cy="365" r="5"/>
	<circle id="XMLID_689_" cx="25" cy="365" r="5"/>
	<circle id="XMLID_688_" cx="45" cy="365" r="5"/>
	<circle id="XMLID_687_" cx="65" cy="365" r="5"/>
	<circle id="XMLID_686_" cx="85" cy="365" r="5"/>
	<circle id="XMLID_685_" cx="105" cy="365" r="5"/>
	<circle id="XMLID_684_" cx="125" cy="365" r="5"/>
	<circle id="XMLID_683_" cx="145" cy="365" r="5"/>
	<circle id="XMLID_682_" cx="165" cy="365" r="5"/>
	<circle id="XMLID_681_" cx="185" cy="365" r="5"/>
	<circle id="XMLID_680_" cx="205" cy="365" r="5"/>
	<circle id="XMLID_679_" cx="225" cy="365" r="5"/>
	<circle id="XMLID_678_" cx="245" cy="365" r="5"/>
	<circle id="XMLID_677_" cx="265" cy="365" r="5"/>
	<circle id="XMLID_676_" cx="285" cy="365" r="5"/>
	<circle id="XMLID_675_" cx="305" cy="365" r="5"/>
	<circle id="XMLID_674_" cx="325" cy="365" r="5"/>
	<circle id="XMLID_673_" cx="345" cy="365" r="5"/>
	<circle id="XMLID_672_" cx="365" cy="365" r="5"/>
	<circle id="XMLID_671_" cx="385" cy="365" r="5"/>
	<circle id="XMLID_670_" cx="405" cy="365" r="5"/>
	<circle id="XMLID_669_" cx="425" cy="365" r="5"/>
	<circle id="XMLID_668_" cx="445" cy="365" r="5"/>
	<circle id="XMLID_667_" cx="465" cy="365" r="5"/>
	<circle id="XMLID_666_" cx="485" cy="365" r="5"/>
	<circle id="XMLID_715_" cx="5" cy="385" r="5"/>
	<circle id="XMLID_714_" cx="25" cy="385" r="5"/>
	<circle id="XMLID_713_" cx="45" cy="385" r="5"/>
	<circle id="XMLID_712_" cx="65" cy="385" r="5"/>
	<circle id="XMLID_711_" cx="85" cy="385" r="5"/>
	<circle id="XMLID_710_" cx="105" cy="385" r="5"/>
	<circle id="XMLID_709_" cx="125" cy="385" r="5"/>
	<circle id="XMLID_708_" cx="145" cy="385" r="5"/>
	<circle id="XMLID_707_" cx="165" cy="385" r="5"/>
	<circle id="XMLID_706_" cx="185" cy="385" r="5"/>
	<circle id="XMLID_705_" cx="205" cy="385" r="5"/>
	<circle id="XMLID_704_" cx="225" cy="385" r="5"/>
	<circle id="XMLID_703_" cx="245" cy="385" r="5"/>
	<circle id="XMLID_702_" cx="265" cy="385" r="5"/>
	<circle id="XMLID_701_" cx="285" cy="385" r="5"/>
	<circle id="XMLID_700_" cx="305" cy="385" r="5"/>
	<circle id="XMLID_699_" cx="325" cy="385" r="5"/>
	<circle id="XMLID_698_" cx="345" cy="385" r="5"/>
	<circle id="XMLID_697_" cx="365" cy="385" r="5"/>
	<circle id="XMLID_696_" cx="385" cy="385" r="5"/>
	<circle id="XMLID_695_" cx="405" cy="385" r="5"/>
	<circle id="XMLID_694_" cx="425" cy="385" r="5"/>
	<circle id="XMLID_693_" cx="445" cy="385" r="5"/>
	<circle id="XMLID_692_" cx="465" cy="385" r="5"/>
	<circle id="XMLID_691_" cx="485" cy="385" r="5"/>
	<circle id="XMLID_740_" cx="5" cy="405" r="5"/>
	<circle id="XMLID_739_" cx="25" cy="405" r="5"/>
	<circle id="XMLID_738_" cx="45" cy="405" r="5"/>
	<circle id="XMLID_737_" cx="65" cy="405" r="5"/>
	<circle id="XMLID_736_" cx="85" cy="405" r="5"/>
	<circle id="XMLID_735_" cx="105" cy="405" r="5"/>
	<circle id="XMLID_734_" cx="125" cy="405" r="5"/>
	<circle id="XMLID_733_" cx="145" cy="405" r="5"/>
	<circle id="XMLID_732_" cx="165" cy="405" r="5"/>
	<circle id="XMLID_731_" cx="185" cy="405" r="5"/>
	<circle id="XMLID_730_" cx="205" cy="405" r="5"/>
	<circle id="XMLID_729_" cx="225" cy="405" r="5"/>
	<circle id="XMLID_728_" cx="245" cy="405" r="5"/>
	<circle id="XMLID_727_" cx="265" cy="405" r="5"/>
	<circle id="XMLID_726_" cx="285" cy="405" r="5"/>
	<circle id="XMLID_725_" cx="305" cy="405" r="5"/>
	<circle id="XMLID_724_" cx="325" cy="405" r="5"/>
	<circle id="XMLID_723_" cx="345" cy="405" r="5"/>
	<circle id="XMLID_722_" cx="365" cy="405" r="5"/>
	<circle id="XMLID_721_" cx="385" cy="405" r="5"/>
	<circle id="XMLID_720_" cx="405" cy="405" r="5"/>
	<circle id="XMLID_719_" cx="425" cy="405" r="5"/>
	<circle id="XMLID_718_" cx="445" cy="405" r="5"/>
	<circle id="XMLID_717_" cx="465" cy="405" r="5"/>
	<circle id="XMLID_716_" cx="485" cy="405" r="5"/>
	<circle id="XMLID_765_" cx="5" cy="425" r="5"/>
	<circle id="XMLID_764_" cx="25" cy="425" r="5"/>
	<circle id="XMLID_763_" cx="45" cy="425" r="5"/>
	<circle id="XMLID_762_" cx="65" cy="425" r="5"/>
	<circle id="XMLID_761_" cx="85" cy="425" r="5"/>
	<circle id="XMLID_760_" cx="105" cy="425" r="5"/>
	<circle id="XMLID_759_" cx="125" cy="425" r="5"/>
	<circle id="XMLID_758_" cx="145" cy="425" r="5"/>
	<circle id="XMLID_757_" cx="165" cy="425" r="5"/>
	<circle id="XMLID_756_" cx="185" cy="425" r="5"/>
	<circle id="XMLID_755_" cx="205" cy="425" r="5"/>
	<circle id="XMLID_754_" cx="225" cy="425" r="5"/>
	<circle id="XMLID_753_" cx="245" cy="425" r="5"/>
	<circle id="XMLID_752_" cx="265" cy="425" r="5"/>
	<circle id="XMLID_751_" cx="285" cy="425" r="5"/>
	<circle id="XMLID_750_" cx="305" cy="425" r="5"/>
	<circle id="XMLID_749_" cx="325" cy="425" r="5"/>
	<circle id="XMLID_748_" cx="345" cy="425" r="5"/>
	<circle id="XMLID_747_" cx="365" cy="425" r="5"/>
	<circle id="XMLID_746_" cx="385" cy="425" r="5"/>
	<circle id="XMLID_745_" cx="405" cy="425" r="5"/>
	<circle id="XMLID_744_" cx="425" cy="425" r="5"/>
	<circle id="XMLID_743_" cx="445" cy="425" r="5"/>
	<circle id="XMLID_742_" cx="465" cy="425" r="5"/>
	<circle id="XMLID_741_" cx="485" cy="425" r="5"/>
	<circle id="XMLID_790_" cx="5" cy="445" r="5"/>
	<circle id="XMLID_789_" cx="25" cy="445" r="5"/>
	<circle id="XMLID_788_" cx="45" cy="445" r="5"/>
	<circle id="XMLID_787_" cx="65" cy="445" r="5"/>
	<circle id="XMLID_786_" cx="85" cy="445" r="5"/>
	<circle id="XMLID_785_" cx="105" cy="445" r="5"/>
	<circle id="XMLID_784_" cx="125" cy="445" r="5"/>
	<circle id="XMLID_783_" cx="145" cy="445" r="5"/>
	<circle id="XMLID_782_" cx="165" cy="445" r="5"/>
	<circle id="XMLID_781_" cx="185" cy="445" r="5"/>
	<circle id="XMLID_780_" cx="205" cy="445" r="5"/>
	<circle id="XMLID_779_" cx="225" cy="445" r="5"/>
	<circle id="XMLID_778_" cx="245" cy="445" r="5"/>
	<circle id="XMLID_777_" cx="265" cy="445" r="5"/>
	<circle id="XMLID_776_" cx="285" cy="445" r="5"/>
	<circle id="XMLID_775_" cx="305" cy="445" r="5"/>
	<circle id="XMLID_774_" cx="325" cy="445" r="5"/>
	<circle id="XMLID_773_" cx="345" cy="445" r="5"/>
	<circle id="XMLID_772_" cx="365" cy="445" r="5"/>
	<circle id="XMLID_771_" cx="385" cy="445" r="5"/>
	<circle id="XMLID_770_" cx="405" cy="445" r="5"/>
	<circle id="XMLID_769_" cx="425" cy="445" r="5"/>
	<circle id="XMLID_768_" cx="445" cy="445" r="5"/>
	<circle id="XMLID_767_" cx="465" cy="445" r="5"/>
	<circle id="XMLID_766_" cx="485" cy="445" r="5"/>
	<circle id="XMLID_815_" cx="5" cy="465" r="5"/>
	<circle id="XMLID_814_" cx="25" cy="465" r="5"/>
	<circle id="XMLID_813_" cx="45" cy="465" r="5"/>
	<circle id="XMLID_812_" cx="65" cy="465" r="5"/>
	<circle id="XMLID_811_" cx="85" cy="465" r="5"/>
	<circle id="XMLID_810_" cx="105" cy="465" r="5"/>
	<circle id="XMLID_809_" cx="125" cy="465" r="5"/>
	<circle id="XMLID_808_" cx="145" cy="465" r="5"/>
	<circle id="XMLID_807_" cx="165" cy="465" r="5"/>
	<circle id="XMLID_806_" cx="185" cy="465" r="5"/>
	<circle id="XMLID_805_" cx="205" cy="465" r="5"/>
	<circle id="XMLID_804_" cx="225" cy="465" r="5"/>
	<circle id="XMLID_803_" cx="245" cy="465" r="5"/>
	<circle id="XMLID_802_" cx="265" cy="465" r="5"/>
	<circle id="XMLID_801_" cx="285" cy="465" r="5"/>
	<circle id="XMLID_800_" cx="305" cy="465" r="5"/>
	<circle id="XMLID_799_" cx="325" cy="465" r="5"/>
	<circle id="XMLID_798_" cx="345" cy="465" r="5"/>
	<circle id="XMLID_797_" cx="365" cy="465" r="5"/>
	<circle id="XMLID_796_" cx="385" cy="465" r="5"/>
	<circle id="XMLID_795_" cx="405" cy="465" r="5"/>
	<circle id="XMLID_794_" cx="425" cy="465" r="5"/>
	<circle id="XMLID_793_" cx="445" cy="465" r="5"/>
	<circle id="XMLID_792_" cx="465" cy="465" r="5"/>
	<circle id="XMLID_791_" cx="485" cy="465" r="5"/>
	<circle id="XMLID_840_" cx="5" cy="485" r="5"/>
	<circle id="XMLID_839_" cx="25" cy="485" r="5"/>
	<circle id="XMLID_838_" cx="45" cy="485" r="5"/>
	<circle id="XMLID_837_" cx="65" cy="485" r="5"/>
	<circle id="XMLID_836_" cx="85" cy="485" r="5"/>
	<circle id="XMLID_835_" cx="105" cy="485" r="5"/>
	<circle id="XMLID_834_" cx="125" cy="485" r="5"/>
	<circle id="XMLID_833_" cx="145" cy="485" r="5"/>
	<circle id="XMLID_832_" cx="165" cy="485" r="5"/>
	<circle id="XMLID_831_" cx="185" cy="485" r="5"/>
	<circle id="XMLID_830_" cx="205" cy="485" r="5"/>
	<circle id="XMLID_829_" cx="225" cy="485" r="5"/>
	<circle id="XMLID_828_" cx="245" cy="485" r="5"/>
	<circle id="XMLID_827_" cx="265" cy="485" r="5"/>
	<circle id="XMLID_826_" cx="285" cy="485" r="5"/>
	<circle id="XMLID_825_" cx="305" cy="485" r="5"/>
	<circle id="XMLID_824_" cx="325" cy="485" r="5"/>
	<circle id="XMLID_823_" cx="345" cy="485" r="5"/>
	<circle id="XMLID_822_" cx="365" cy="485" r="5"/>
	<circle id="XMLID_821_" cx="385" cy="485" r="5"/>
	<circle id="XMLID_820_" cx="405" cy="485" r="5"/>
	<circle id="XMLID_819_" cx="425" cy="485" r="5"/>
	<circle id="XMLID_818_" cx="445" cy="485" r="5"/>
	<circle id="XMLID_817_" cx="465" cy="485" r="5"/>
	<circle id="XMLID_816_" cx="485" cy="485" r="5"/>
</g>
</svg>
